{"title":"Shaapit (2010) Repack DVD Rip DIVX AC3 Multi-Subs [Dare DEvils]","uid":5518098,"size":940644701,"categoryP":"video","categoryS":"movies","magnet":"?xt=urn:btih:6fb66c8c5e43fc8aa17afdc5b82f4637fb839a20&amp;dn=Shaapit+%282010%29+Repack+DVD+Rip+DIVX+AC3+Multi-Subs+%5BDare+DEvils%5D&amp;tr=udp%3A%2F%2Ftracker.openbittorrent.com%3A80&amp;tr=udp%3A%2F%2Fopen.demonii.com%3A1337&amp;tr=udp%3A%2F%2Ftracker.coppersurfer.tk%3A6969&amp;tr=udp%3A%2F%2Fexodus.desync.com%3A6969","seeders":1,"leechers":0,"uploader":"luvwithromio","files":-1,"time":1272345394,"description":"Format                           : AVI\nFormat/Info                      : Audio Video Interleave\nFile size                        : 892 MiB\nDuration                         : 2h 15mn\nOverall bit rate                 : 919 Kbps\n\nVideo\nID                               : 0\nFormat                           : MPEG-4 Visual\nFormat profile                   : Simple@L1\nFormat settings, BVOP            : No\nFormat settings, QPel            : No\nFormat settings, GMC             : No warppoints\nFormat settings, Matrix          : Default (MPEG)\nCodec ID                         : DX50\nCodec ID/Hint                    : DivX 5\nDuration                         : 2h 15mn\nBit rate                         : 716 Kbps\nWidth                            : 640 pixels\nHeight                           : 272 pixels\nDisplay aspect ratio             : 2.35:1\nFrame rate                       : 23.976 fps\nResolution                       : 8 bits\nColorimetry                      : 4:2:0\nScan type                        : Progressive\nBits/(Pixel*Frame)               : 0.172\nStream size                      : 695 MiB (78%)\nWriting library                  : Lavc51.40.4\n\nAudio\nID                               : 1\nFormat                           : AC-3\nFormat/Info                      : Audio Coding 3\nCodec ID                         : 2000\nDuration                         : 2h 15mn\nBit rate mode                    : Constant\nBit rate                         : 192 Kbps\nChannel(s)                       : 6 channels\nChannel positions                : Front: L C R, Surround: L R, LFE\nSampling rate                    : 48.0 KHz\nResolution                       : 16 bits\nStream size                      : 186 MiB (21%)\nAlignment                        : Aligned on interleaves\nInterleave, duration             : 32 ms (0.77 video frame)","torrent":{"xt":"urn:btih:6fb66c8c5e43fc8aa17afdc5b82f4637fb839a20","amp;dn":"Shaapit+%282010%29+Repack+DVD+Rip+DIVX+AC3+Multi-Subs+%5BDare+DEvils%5D","amp;tr":["udp%3A%2F%2Ftracker.openbittorrent.com%3A80","udp%3A%2F%2Fopen.demonii.com%3A1337","udp%3A%2F%2Ftracker.coppersurfer.tk%3A6969","udp%3A%2F%2Fexodus.desync.com%3A6969"],"infoHash":"6fb66c8c5e43fc8aa17afdc5b82f4637fb839a20","infoHashBuffer":{"type":"Buffer","data":[111,182,108,140,94,67,252,138,161,122,253,197,184,47,70,55,251,131,154,32]},"announce":[],"urlList":[]}}